<svg width="60" height="60" viewBox="0 0 60 60" xmlns="http://www.w3.org/2000/svg"><path d="m1.553 34.42 9.108-9.384q1.471-1.472 3.312-1.472.69 0 1.334.414.69.414.966 1.196L14.57 26.83l-6.762 6.992 4.278 5.75q.552.69.552 1.472 0 .735-.23 1.38a3.2 3.2 0 0 1-.736 1.104q-1.012 1.15-2.898 1.242zm22.21 17.434q0-.828.414-2.024L39.219 8.292q.827-.138 2.438-.138 1.656 0 2.622.46 1.012.414 1.012 1.748 0 1.15-.736 3.266L29.927 54.016q-.368.184-2.53.184-3.634 0-3.634-2.346m18.502-8.74 3.036-2.99 5.428-5.658-3.036-4.094q-.69-.875-1.242-1.61t-.552-1.472q0-.735.23-1.38t.736-1.15q1.057-1.15 2.898-1.242l7.222 10.35-9.108 9.384q-1.473 1.472-3.312 1.472-.69 0-1.38-.414-.644-.414-.92-1.196"/></svg>